<svg xmlns="http://www.w3.org/2000/svg" viewBox="0 0 512 512" width="512" height="512">

  <!-- Pozadie -->
  <rect x="0" y="0" width="512" height="512" rx="108" fill="#1b2d18"/>

  <!-- Korunka mikrofónu -->
  <ellipse cx="256" cy="92" rx="18" ry="6" fill="#c8d4a0"/>
  <rect x="250" y="86" width="12" height="12" rx="2" fill="#c8d4a0"/>
  <line x1="244" y1="88" x2="244" y2="96" stroke="#c8d4a0" stroke-width="4" stroke-linecap="round"/>
  <line x1="268" y1="88" x2="268" y2="96" stroke="#c8d4a0" stroke-width="4" stroke-linecap="round"/>

  <!-- Telo mikrofónu -->
  <ellipse cx="256" cy="172" rx="54" ry="76" fill="none" stroke="#c8d4a0" stroke-width="7"/>

  <!-- Horizontálne čiary - mriežka -->
  <line x1="205" y1="130" x2="307" y2="130" stroke="#c8d4a0" stroke-width="4" stroke-linecap="round"/>
  <line x1="202" y1="148" x2="310" y2="148" stroke="#c8d4a0" stroke-width="4" stroke-linecap="round"/>
  <line x1="202" y1="166" x2="310" y2="166" stroke="#c8d4a0" stroke-width="4" stroke-linecap="round"/>
  <line x1="202" y1="184" x2="310" y2="184" stroke="#c8d4a0" stroke-width="4" stroke-linecap="round"/>
  <line x1="204" y1="202" x2="308" y2="202" stroke="#c8d4a0" stroke-width="4" stroke-linecap="round"/>
  <line x1="209" y1="220" x2="303" y2="220" stroke="#c8d4a0" stroke-width="4" stroke-linecap="round"/>

  <!-- Krk mikrofónu -->
  <rect x="248" y="246" width="16" height="22" rx="3" fill="#c8d4a0"/>
  <rect x="236" y="266" width="40" height="8" rx="4" fill="#c8d4a0"/>
  <rect x="230" y="272" width="52" height="6" rx="3" fill="#c8d4a0"/>

  <!-- Text PREPIS -->
  <text x="256" y="322"
    font-family="'Arial Black', 'Arial Bold', Arial, sans-serif"
    font-size="54"
    font-weight="900"
    text-anchor="middle"
    letter-spacing="5"
    fill="#c8d4a0">PREPIS</text>

  <!-- Zvukové vlny -->
  <rect x="148" y="368" width="14" height="32" rx="7" fill="#c8d4a0"/>
  <rect x="170" y="355" width="14" height="50" rx="7" fill="#c8d4a0"/>
  <rect x="192" y="362" width="14" height="38" rx="7" fill="#c8d4a0"/>
  <rect x="214" y="348" width="14" height="58" rx="7" fill="#c8d4a0"/>
  <rect x="236" y="356" width="14" height="44" rx="7" fill="#c8d4a0"/>
  <rect x="258" y="344" width="14" height="60" rx="7" fill="#c8d4a0"/>
  <rect x="280" y="354" width="14" height="44" rx="7" fill="#c8d4a0"/>
  <rect x="302" y="347" width="14" height="58" rx="7" fill="#c8d4a0"/>
  <rect x="324" y="361" width="14" height="38" rx="7" fill="#c8d4a0"/>
  <rect x="346" y="354" width="14" height="50" rx="7" fill="#c8d4a0"/>
  <rect x="368" y="367" width="14" height="32" rx="7" fill="#c8d4a0"/>

</svg>
