<svg xmlns="http://www.w3.org/2000/svg" viewBox="0 0 512 512" width="512" height="512">
  <defs>
    <linearGradient id="greenGrad" x1="0%" y1="0%" x2="100%" y2="100%">
      <stop offset="0%" stop-color="#3a593b" />
      <stop offset="50%" stop-color="#2e4430" />
      <stop offset="100%" stop-color="#1b2a1c" />
    </linearGradient>
    <linearGradient id="silverGrad" x1="0%" y1="0%" x2="0%" y2="100%">
      <stop offset="0%" stop-color="#ffffff" />
      <stop offset="100%" stop-color="#e2eae3" />
    </linearGradient>
    <filter id="dropShadow" x="-10%" y="-10%" width="120%" height="120%">
      <feDropShadow dx="0" dy="8" stdDeviation="6" flood-color="#000000" flood-opacity="0.4" />
    </filter>
  </defs>

  <rect x="32" y="32" width="448" height="448" rx="105" fill="url(#greenGrad)" />

  <g filter="url(#dropShadow)">
    <g fill="url(#silverGrad)">
      <rect x="95" y="226" width="14" height="60" rx="7" />
      <rect x="120" y="196" width="14" height="120" rx="7" />
      <rect x="145" y="166" width="14" height="180" rx="7" />
      <rect x="170" y="206" width="14" height="100" rx="7" />
    </g>

    <path d="M 215 370 L 215 170 C 215 125, 255 125, 290 125 L 345 125 C 405 125, 405 245, 345 245 L 215 245" 
          fill="none" stroke="url(#silverGrad)" stroke-width="24" stroke-linecap="round" stroke-linejoin="round" />

    <g fill="url(#silverGrad)">
      <rect x="255" y="175" width="32" height="54" rx="16" />
      <path d="M 243 200 C 243 236, 299 236, 299 200" fill="none" stroke="url(#silverGrad)" stroke-width="8" stroke-linecap="round" />
      <path d="M 271 230 L 271 255" stroke="url(#silverGrad)" stroke-width="8" stroke-linecap="round" />
    </g>
  </g>
</svg>
